<svg width="22" height="12" viewBox="0 0 22 12" fill="none" xmlns="http://www.w3.org/2000/svg">
<path fill-rule="evenodd" clip-rule="evenodd" d="M11.6626 11.3499C11.4868 11.5255 11.2485 11.6241 11.0001 11.6241C10.7516 11.6241 10.5133 11.5255 10.3376 11.3499L0.962552 1.97495C0.796952 1.79723 0.706798 1.56217 0.711084 1.3193C0.715369 1.07642 0.813759 0.844687 0.985525 0.67292C1.15729 0.501154 1.38902 0.402764 1.6319 0.398479C1.87478 0.394194 2.10983 0.484347 2.28755 0.649947L11.0001 9.36245L19.7126 0.649947C19.7984 0.557839 19.9019 0.483961 20.0169 0.432721C20.1319 0.381481 20.256 0.353929 20.3819 0.351708C20.5078 0.349487 20.6328 0.372643 20.7495 0.419794C20.8663 0.466945 20.9723 0.537126 21.0614 0.62615C21.1504 0.715173 21.2206 0.821215 21.2677 0.93795C21.3149 1.05469 21.338 1.17972 21.3358 1.3056C21.3336 1.43148 21.306 1.55562 21.2548 1.67062C21.2035 1.78562 21.1297 1.88912 21.0376 1.97495L11.6626 11.3499Z" fill="#F7EF7C"/>
</svg>
