<svg width="1722" height="1699" viewBox="0 0 1722 1699" fill="none" xmlns="http://www.w3.org/2000/svg">
<g filter="url(#filter0_dddddd_2507_82)">
<path fill-rule="evenodd" clip-rule="evenodd" d="M284.98 262.151C283.852 263.379 283.215 265.272 283.215 267.924C283.215 270.564 283.846 272.438 284.969 273.65C286.085 274.856 287.763 275.488 290.035 275.488H292.243C294.515 275.488 296.193 274.856 297.309 273.65C298.432 272.438 299.063 270.564 299.063 267.924C299.063 265.272 298.426 263.379 297.299 262.151C296.178 260.93 294.5 260.288 292.243 260.288H290.035C287.778 260.288 286.1 260.93 284.98 262.151ZM284.243 261.475C285.606 259.99 287.588 259.288 290.035 259.288H292.243C294.69 259.288 296.672 259.99 298.036 261.475C299.392 262.953 300.063 265.128 300.063 267.924C300.063 270.708 299.398 272.866 298.043 274.33C296.681 275.8 294.699 276.488 292.243 276.488H290.035C287.579 276.488 285.597 275.8 284.235 274.33C282.88 272.866 282.215 270.708 282.215 267.924C282.215 265.128 282.886 262.953 284.243 261.475ZM286.24 263.553C287.103 262.538 288.395 262.12 290.035 262.12H292.243C293.883 262.12 295.17 262.538 296.027 263.551C296.867 264.544 297.207 266.01 297.207 267.9C297.207 269.801 296.868 271.263 296.025 272.248C295.166 273.252 293.879 273.656 292.243 273.656H290.035C288.389 273.656 287.096 273.253 286.233 272.252C285.387 271.27 285.047 269.813 285.047 267.924C285.047 266.021 285.394 264.549 286.24 263.553ZM287.002 264.201C286.385 264.927 286.047 266.107 286.047 267.924C286.047 269.731 286.38 270.89 286.991 271.6C287.587 272.291 288.538 272.656 290.035 272.656H292.243C293.728 272.656 294.672 272.292 295.265 271.598C295.875 270.885 296.207 269.719 296.207 267.9C296.207 266.094 295.875 264.92 295.264 264.197C294.669 263.494 293.723 263.12 292.243 263.12H290.035C288.555 263.12 287.603 263.494 287.002 264.201Z" fill="white"/>
<path fill-rule="evenodd" clip-rule="evenodd" d="M261.998 259.288H266.186L271.229 272.644C271.273 272.764 271.32 272.808 271.348 272.827C271.377 272.847 271.434 272.872 271.552 272.872C271.669 272.872 271.718 272.848 271.743 272.83C271.773 272.809 271.824 272.76 271.883 272.627L277.165 259.288H281.385L275.401 274.372C275.068 275.211 274.578 275.829 273.905 276.229C273.24 276.624 272.445 276.776 271.552 276.776C270.713 276.776 269.916 276.643 269.235 276.262C268.542 275.874 268.014 275.254 267.677 274.365L261.998 259.288ZM263.443 260.288L268.612 274.011C268.875 274.706 269.259 275.13 269.724 275.39C270.201 275.657 270.808 275.776 271.552 275.776C272.34 275.776 272.937 275.64 273.394 275.369C273.843 275.103 274.204 274.677 274.472 274.004L279.912 260.288H277.844L272.806 273.012L272.802 273.02C272.695 273.266 272.544 273.491 272.315 273.65C272.083 273.812 271.82 273.872 271.552 273.872C271.287 273.872 271.02 273.813 270.785 273.653C270.549 273.492 270.392 273.261 270.292 272.996L265.495 260.288H263.443Z" fill="white"/>
<path fill-rule="evenodd" clip-rule="evenodd" d="M252.888 261.772L247.47 275.488H249.515L254.529 262.764L254.533 262.756C254.645 262.5 254.807 262.276 255.041 262.12C255.276 261.963 255.54 261.904 255.807 261.904C256.072 261.904 256.34 261.963 256.575 262.123C256.81 262.284 256.968 262.515 257.067 262.78L261.865 275.488H263.938L258.724 261.766C258.468 261.095 258.113 260.671 257.669 260.406C257.215 260.136 256.619 260 255.831 260C255.031 260 254.427 260.136 253.967 260.408C253.516 260.674 253.155 261.099 252.888 261.772ZM253.459 259.546C254.127 259.152 254.927 259 255.831 259C256.724 259 257.519 259.152 258.181 259.548C258.853 259.949 259.338 260.569 259.658 261.41L265.388 276.488H261.173L256.131 263.132C256.086 263.012 256.04 262.968 256.011 262.949C255.982 262.929 255.926 262.904 255.807 262.904C255.69 262.904 255.63 262.929 255.595 262.952C255.56 262.976 255.507 263.026 255.453 263.149L250.195 276.488H246L251.958 261.404C252.291 260.566 252.782 259.946 253.459 259.546Z" fill="white"/>
</g>
<defs>
<filter id="filter0_dddddd_2507_82" x="-1175.28" y="-1162.28" width="2896.62" height="2860.34" filterUnits="userSpaceOnUse" color-interpolation-filters="sRGB">
<feFlood flood-opacity="0" result="BackgroundImageFix"/>
<feColorMatrix in="SourceAlpha" type="matrix" values="0 0 0 0 0 0 0 0 0 0 0 0 0 0 0 0 0 0 127 0" result="hardAlpha"/>
<feOffset/>
<feGaussianBlur stdDeviation="16.92"/>
<feColorMatrix type="matrix" values="0 0 0 0 1 0 0 0 0 1 0 0 0 0 1 0 0 0 1 0"/>
<feBlend mode="normal" in2="BackgroundImageFix" result="effect1_dropShadow_2507_82"/>
<feColorMatrix in="SourceAlpha" type="matrix" values="0 0 0 0 0 0 0 0 0 0 0 0 0 0 0 0 0 0 127 0" result="hardAlpha"/>
<feOffset/>
<feGaussianBlur stdDeviation="33.84"/>
<feColorMatrix type="matrix" values="0 0 0 0 1 0 0 0 0 1 0 0 0 0 1 0 0 0 1 0"/>
<feBlend mode="normal" in2="effect1_dropShadow_2507_82" result="effect2_dropShadow_2507_82"/>
<feColorMatrix in="SourceAlpha" type="matrix" values="0 0 0 0 0 0 0 0 0 0 0 0 0 0 0 0 0 0 127 0" result="hardAlpha"/>
<feOffset/>
<feGaussianBlur stdDeviation="118.44"/>
<feColorMatrix type="matrix" values="0 0 0 0 1 0 0 0 0 1 0 0 0 0 1 0 0 0 1 0"/>
<feBlend mode="normal" in2="effect2_dropShadow_2507_82" result="effect3_dropShadow_2507_82"/>
<feColorMatrix in="SourceAlpha" type="matrix" values="0 0 0 0 0 0 0 0 0 0 0 0 0 0 0 0 0 0 127 0" result="hardAlpha"/>
<feOffset/>
<feGaussianBlur stdDeviation="236.88"/>
<feColorMatrix type="matrix" values="0 0 0 0 1 0 0 0 0 1 0 0 0 0 1 0 0 0 1 0"/>
<feBlend mode="normal" in2="effect3_dropShadow_2507_82" result="effect4_dropShadow_2507_82"/>
<feColorMatrix in="SourceAlpha" type="matrix" values="0 0 0 0 0 0 0 0 0 0 0 0 0 0 0 0 0 0 127 0" result="hardAlpha"/>
<feOffset/>
<feGaussianBlur stdDeviation="406.08"/>
<feColorMatrix type="matrix" values="0 0 0 0 1 0 0 0 0 1 0 0 0 0 1 0 0 0 1 0"/>
<feBlend mode="normal" in2="effect4_dropShadow_2507_82" result="effect5_dropShadow_2507_82"/>
<feColorMatrix in="SourceAlpha" type="matrix" values="0 0 0 0 0 0 0 0 0 0 0 0 0 0 0 0 0 0 127 0" result="hardAlpha"/>
<feOffset/>
<feGaussianBlur stdDeviation="710.64"/>
<feColorMatrix type="matrix" values="0 0 0 0 1 0 0 0 0 1 0 0 0 0 1 0 0 0 1 0"/>
<feBlend mode="normal" in2="effect5_dropShadow_2507_82" result="effect6_dropShadow_2507_82"/>
<feBlend mode="normal" in="SourceGraphic" in2="effect6_dropShadow_2507_82" result="shape"/>
</filter>
</defs>
</svg>
