<svg width="474" height="477" viewBox="0 0 474 477" fill="none" xmlns="http://www.w3.org/2000/svg">
<path fill-rule="evenodd" clip-rule="evenodd" d="M469.5 471.769H4.50006V5.7686H469.5V471.769ZM468.5 470.769V6.7686H5.50006V470.769H468.5Z" fill="white"/>
<path fill-rule="evenodd" clip-rule="evenodd" d="M473.07 476.269H415.052V466.269H463.07V414.838H473.07V476.269Z" fill="white"/>
<path fill-rule="evenodd" clip-rule="evenodd" d="M473.07 61.4308H463.07V10H415.052V0H473.07V61.4308Z" fill="white"/>
<path fill-rule="evenodd" clip-rule="evenodd" d="M59.8795 476.269H0.930176V414.838H10.9302V466.269H59.8795V476.269Z" fill="white"/>
<path fill-rule="evenodd" clip-rule="evenodd" d="M10.9302 10V61.4308H0.930176V0H59.8795V10H10.9302Z" fill="white"/>
<path fill-rule="evenodd" clip-rule="evenodd" d="M66.7479 410.321L7.2186 471.617L6.50123 470.92L66.0305 409.624L66.7479 410.321Z" fill="white"/>
<path fill-rule="evenodd" clip-rule="evenodd" d="M408.902 409.627L467.502 470.923L466.779 471.614L408.18 410.318L408.902 409.627Z" fill="white"/>
<path fill-rule="evenodd" clip-rule="evenodd" d="M7.21859 5.62447L66.7489 66.9203L66.0315 67.617L6.50123 6.32117L7.21859 5.62447Z" fill="white"/>
<path fill-rule="evenodd" clip-rule="evenodd" d="M467.502 6.31833L408.902 67.6141L408.18 66.9231L466.779 5.6273L467.502 6.31833Z" fill="white"/>
</svg>
