<svg width="185" height="187" viewBox="0 0 185 187" fill="none" xmlns="http://www.w3.org/2000/svg">
<path d="M56.5268 0H51.3877V5.13915H56.5268V0Z" fill="black"/>
<path d="M82.2222 0H77.083V5.13915H82.2222V0Z" fill="black"/>
<path d="M118.195 0H113.056V5.13915H118.195V0Z" fill="black"/>
<path d="M71.9443 10.2764V5.13723H66.8052V0H61.666V5.13723V10.2764V15.4155H66.8052V10.2764H71.9443Z" fill="black"/>
<path d="M123.332 5.13721H118.192V10.2764H123.332V5.13721Z" fill="black"/>
<path d="M133.61 15.4155V20.5547H138.749V15.4155V10.2764V5.13721H133.61V10.2764V15.4155Z" fill="black"/>
<path d="M51.3882 15.4155V10.2764H46.249V15.4155V20.5547H51.3882V15.4155Z" fill="black"/>
<path d="M133.61 0H128.471V5.13915H133.61V0Z" fill="black"/>
<path d="M123.332 20.5547H128.471V15.4155V10.2764H123.332V15.4155V20.5547Z" fill="black"/>
<path d="M61.6665 20.5546H56.5273V25.6938H61.6665V20.5546Z" fill="black"/>
<path d="M82.2222 20.5546H77.083V25.6938H82.2222V20.5546Z" fill="black"/>
<path d="M56.5268 25.6938H51.3877V30.833H56.5268V25.6938Z" fill="black"/>
<path d="M102.777 25.6938H97.6377V30.833H102.777V25.6938Z" fill="black"/>
<path d="M51.3882 30.833H46.249V35.9722H51.3882V30.833Z" fill="black"/>
<path d="M107.916 30.833H102.777V35.9722H107.916V30.833Z" fill="black"/>
<path d="M66.8052 35.9702V30.833V25.6938H61.666V30.833V35.9702V41.1094H66.8052V35.9702Z" fill="black"/>
<path d="M77.0835 35.9702V30.833V25.6938H71.9443V30.833V35.9702V41.1094H77.0835V35.9702Z" fill="black"/>
<path d="M102.777 35.9702H97.6377V41.1094V46.2485H102.777V41.1094V35.9702Z" fill="black"/>
<path d="M41.1118 46.2485H35.9727V51.3876H41.1118V46.2485Z" fill="black"/>
<path d="M102.777 51.3876V56.5268H107.916V51.3876V46.2485H102.777V51.3876Z" fill="black"/>
<path d="M143.888 46.2485H138.749V41.1094H133.61V46.2485H128.471V51.3877H133.61V56.5268H138.749H143.888V51.3877V46.2485Z" fill="black"/>
<path d="M5.13915 51.3877H0V56.5268H5.13915V51.3877Z" fill="black"/>
<path d="M25.6938 51.3876V46.2485H20.5547V51.3876V56.5268H25.6938V51.3876Z" fill="black"/>
<path d="M128.471 51.3877H123.332V56.5268H128.471V51.3877Z" fill="black"/>
<path d="M154.167 51.3877H149.028V56.5268H154.167V51.3877Z" fill="black"/>
<path d="M20.5552 61.6659V56.5268H15.416V51.3876V46.2485H10.2769H5.13965V51.3876H10.2769V56.5268V61.6659H15.416H20.5552Z" fill="black"/>
<path d="M118.195 56.5269H113.056V61.666H118.195V56.5269Z" fill="black"/>
<path d="M169.583 61.6659V56.5268V51.3876V46.2485H164.444V51.3876H159.305V56.5268V61.6659V66.8051H164.444V61.6659H169.583Z" fill="black"/>
<path d="M10.2788 61.6661H5.13965V66.8052H10.2788V61.6661Z" fill="black"/>
<path d="M138.749 25.6938H133.61V30.833H138.749V25.6938Z" fill="black"/>
<path d="M133.61 30.833H128.471V35.9722H133.61V30.833Z" fill="black"/>
<path d="M25.6938 61.6661H20.5547V66.8052H25.6938V61.6661Z" fill="black"/>
<path d="M61.6665 61.666V56.5269H56.5273V61.666V66.8052V71.9424H61.6665V66.8052H66.8056V61.666H61.6665Z" fill="black"/>
<path d="M149.027 66.8052V61.666V56.5269H143.888V61.666H138.749V66.8052H143.888H149.027Z" fill="black"/>
<path d="M15.4165 66.8051H10.2773V71.9443H15.4165V66.8051Z" fill="black"/>
<path d="M30.8335 71.9424V77.0815H35.9726H41.1099H46.249H51.3882V71.9424V66.8052H46.249V71.9424H41.1099H35.9726V66.8052H41.1099V61.666V56.5269H35.9726H30.8335V61.666V66.8052H25.6943V71.9424H30.8335Z" fill="black"/>
<path d="M133.61 71.9424H138.749V66.8051H133.61H128.471V71.9424V77.0815H123.332V82.2207V87.3598H128.471V82.2207H133.61V77.0815V71.9424Z" fill="black"/>
<path d="M154.165 71.9424H149.028H143.889V77.0815H149.028H154.165V82.2207H159.304H164.443V77.0815V71.9424H159.304H154.165Z" fill="black"/>
<path d="M5.13915 77.0815V71.9424H0V77.0815V82.2207H5.13915V77.0815Z" fill="black"/>
<path d="M61.6665 77.0815H56.5273V82.2206H61.6665V77.0815Z" fill="black"/>
<path d="M92.5 77.0816V82.2208H97.6392H102.778H107.917V77.0816V71.9425H113.057H118.194H123.333V66.8052V61.6661H118.194V66.8052H113.057H107.917V61.6661H102.778V66.8052V71.9425H97.6392V77.0816H92.5Z" fill="black"/>
<path d="M138.749 82.2206H133.61V87.3598V92.4989H138.749V87.3598H143.889V82.2206V77.0815H138.749V82.2206Z" fill="black"/>
<path d="M56.5273 87.3598V82.2206H51.3882H46.249V87.3598H51.3882H56.5273Z" fill="black"/>
<path d="M66.8056 87.3598V92.4989H71.9448V97.6381V102.777V107.916H77.0839V113.056H82.2231H87.3622H92.5014V107.916V102.777H87.3622V107.916H82.2231V102.777H77.0839V97.6381V92.4989H82.2231H87.3622V97.6381H92.5014V102.777H97.6405H102.78V107.916H107.919V102.777H113.058V97.6381H107.919V92.4989H102.78V97.6381H97.6405V92.4989H92.5014V87.3598H87.3622H82.2231V82.2206V77.0815V71.9423H87.3622V77.0815H92.5014V71.9423H97.6405V66.8032V61.664H92.5014V66.8032H87.3622V61.664H92.5014V56.5249H97.6405V51.3857H92.5014V46.2466H87.3622V51.3857H82.2231V46.2466H87.3622V41.1074H92.5014V35.9683V30.8291V25.69V20.5508H97.6405H102.78H107.919V25.69H113.058V30.8291H118.197V35.9683H113.058V41.1074H107.919V46.2466H113.058V51.3857H118.197V46.2466H123.336V41.1074V35.9683V30.8291V25.69H118.193V20.5508V15.4117V10.2764H113.054V5.13721H107.915H102.776H97.6367V10.2764H102.776V15.4155H97.6367H92.4975H87.3584V10.2764V5.13721H82.2192V10.2764H77.0801H71.9448V15.4155H66.8056V20.5547H71.9448H77.0839V15.4155H82.2231V20.5547H87.3622V25.6938V30.833H82.2231V35.9721V41.1113H77.0839V46.2504H71.9448V41.1113H66.8056V46.2504H61.6665V41.1113H56.5273V46.2504H51.3882H46.249V51.3896H51.3882H56.5273H61.6665H66.8056H71.9448V56.5287V61.6679V66.807H66.8056V71.9462V77.0853V82.2245H61.6665V87.3636H66.8056V87.3598ZM77.0839 61.666V56.5268H82.2231V61.666V66.8051H77.0839V61.666ZM71.9448 71.9423H77.0839V77.0815H71.9448V71.9423ZM77.0839 82.2206V87.3598H71.9448V82.2206H77.0839Z" fill="black"/>
<path d="M113.055 87.3598H118.192V82.2206H113.055H107.916V87.3598H113.055Z" fill="black"/>
<path d="M5.13915 87.3599H0V92.499H5.13915V87.3599Z" fill="black"/>
<path d="M56.5268 92.499H51.3877V97.6382H56.5268V102.777H61.666H66.8051V97.6382H61.666V92.499V87.3599H56.5268V92.499Z" fill="black"/>
<path d="M35.9726 97.6381H41.1099H46.249V92.4989V87.3598H41.1099V82.2206H35.9726H30.8335H25.6943V87.3598H30.8335V92.4989H35.9726V97.6381Z" fill="black"/>
<path d="M118.195 92.499H113.056V97.6382H118.195V92.499Z" fill="black"/>
<path d="M138.749 92.499V97.6382H133.61V102.777H138.749H143.889V107.916H149.028V113.056V118.195V123.334V128.473H143.889V133.612H138.749V128.473H143.889V123.334H138.749H133.61H128.471V128.473H133.61V133.612H128.471V138.751H123.332V143.891V149.03H128.471V143.891H133.61V149.03H128.471V154.169H133.61V159.308H128.471V164.447H133.61V169.586H138.749V164.447H143.889V159.308H149.028V164.447H143.889V169.586H149.028V174.725H154.167V179.865H149.028V174.725H143.889V179.865H138.749V185.004H143.889H149.028H154.167H159.306H164.445H169.584V179.865H174.724V174.725H169.584H164.445V179.865H159.306V174.725H164.445V169.586H159.306H154.167V164.447V159.308H159.306V149.03H164.445H169.584V143.891H174.724V138.751H169.584H164.445V143.891H159.306V138.751H164.445V133.612H159.306H154.167V128.473V123.334V118.195V113.056H159.306V118.195V123.334H164.445V118.195V113.056H169.584V107.916H164.445H159.306H154.167V102.777H149.028V97.6382H154.167V102.777H159.306V97.6382H164.445V92.499H159.306V87.3599H154.167H149.028H143.889V92.499H138.749ZM154.165 154.165H138.748V138.748H154.165V154.165Z" fill="black"/>
<path d="M128.471 97.6382H133.61V92.499H128.471H123.332V97.6382V102.777H128.471V97.6382Z" fill="black"/>
<path d="M169.582 97.6381H164.442V102.777H169.582V97.6381Z" fill="black"/>
<path d="M35.9712 102.777H30.832V107.916H35.9712V102.777Z" fill="black"/>
<path d="M123.332 102.777H118.192V107.916H123.332V102.777Z" fill="black"/>
<path d="M102.777 107.915H97.6377V113.054H102.777V107.915Z" fill="black"/>
<path d="M128.471 113.054H133.61V107.915H128.471H123.332V113.054V118.193H128.471V113.054Z" fill="black"/>
<path d="M138.749 113.054H133.61V118.193H138.749V113.054Z" fill="black"/>
<path d="M77.0835 118.193H71.9443V123.332H77.0835V118.193Z" fill="black"/>
<path d="M87.3599 118.193H82.2207V123.332H87.3599V118.193Z" fill="black"/>
<path d="M97.6392 118.193H92.5V123.332H97.6392V118.193Z" fill="black"/>
<path d="M82.2222 123.332H77.083V128.471H82.2222V123.332Z" fill="black"/>
<path d="M92.4995 123.332H87.3604V128.471H92.4995V123.332Z" fill="black"/>
<path d="M25.6938 128.471V123.332V118.193V113.054V107.915H20.5547H15.4155V102.777V97.6381H20.5547V102.777H25.6938H30.833V97.6381V92.499H25.6938H20.5547V87.3598V82.2207V77.0815V71.9424H15.4155V77.0815V82.2207V87.3598V92.499H10.2764H5.13915V97.6381H10.2764V102.777H5.13915V97.6381H0V102.777V107.915H5.13915V113.054H0V118.193V123.332V128.471V133.61V138.749H5.13915H10.2764H15.4155V133.61H10.2764V128.471H5.13915V123.332V118.193H10.2764H15.4155V113.054H20.5547V118.193V123.332V128.471H15.4155V133.61H20.5547H25.6938V138.749H30.833V133.61H35.9721V128.471H30.833H25.6938Z" fill="black"/>
<path d="M77.0825 133.61V128.471H71.9433V123.332H66.8042V128.471H61.665V123.332H66.8042V118.193V113.054V107.915H61.665H56.5259V113.054H61.665V118.193H56.5259H51.3867H46.2476H41.1084V113.054H46.2476H51.3867V107.915H56.5259V102.777H51.3867V97.6381H46.2476V102.777V107.915H41.1084H35.9712V113.054V118.193H30.832V123.332H35.9712V128.471H41.1084V123.332H46.2476V128.471H51.3867V123.332H56.5259V128.471V133.61H51.3867H46.2476V128.471H41.1084V133.61V138.749H46.2476H51.3867V143.887H46.2476V149.026H51.3867V154.165H56.5259V149.026V143.887V138.749H61.665V133.61H66.8042V138.749H71.9433V133.61H77.0825Z" fill="black"/>
<path d="M107.916 133.61H113.056V128.471H118.193H123.332V123.332V118.193H118.193V123.332H113.056H107.916V118.193H102.777V123.332V128.471H107.916V133.61Z" fill="black"/>
<path d="M128.471 128.471H123.332V133.61H128.471V128.471Z" fill="black"/>
<path d="M102.777 133.61V128.471H97.6377V133.61V138.749H102.777V133.61Z" fill="black"/>
<path d="M123.332 133.61H118.192V138.749H123.332V133.61Z" fill="black"/>
<path d="M113.056 143.887H118.193V138.749H113.056H107.916H102.777V143.887H107.916H113.056Z" fill="black"/>
<path d="M66.8052 143.887H61.666V149.026H66.8052H71.9443V143.887H66.8052Z" fill="black"/>
<path d="M149.028 143.887H143.889V149.026H149.028V143.887Z" fill="black"/>
<path d="M77.0835 149.026H71.9443V154.165H77.0835V149.026Z" fill="black"/>
<path d="M169.582 154.165H164.442V159.304H169.582V154.165Z" fill="black"/>
<path d="M51.3882 159.304H46.249V164.443H51.3882V159.304Z" fill="black"/>
<path d="M71.9438 159.304V154.165H66.8047V159.304V164.443V169.582H71.9438V164.443V159.304Z" fill="black"/>
<path d="M123.332 159.304H118.192V164.443H123.332V159.304Z" fill="black"/>
<path d="M61.6665 164.443H56.5273V169.582H61.6665V164.443Z" fill="black"/>
<path d="M82.2222 164.443H77.083V169.582H82.2222V164.443Z" fill="black"/>
<path d="M56.5273 169.582H51.3882H46.249V174.722V179.859H51.3882V174.722H56.5273V169.582Z" fill="black"/>
<path d="M77.0835 169.582H71.9443V174.722H77.0835V169.582Z" fill="black"/>
<path d="M107.916 169.582H113.056V164.443H107.916H102.777V169.582V174.721H97.6382V169.582H92.499V164.443H97.6382H102.777V159.304H107.916H113.056H118.195V154.165H113.056H107.916H102.777V149.026V143.887H97.6382V138.747H92.499H87.3599V133.608H82.2207H77.0816V138.747H71.9443V143.887H77.0835H82.2226V149.026V154.165V159.304V164.443H87.3618V169.582H82.2226V174.721V179.861H87.3618V174.721H92.5009V179.861H97.6401H102.779H107.918V174.721L107.916 169.582ZM87.3599 154.165H92.499V149.026H87.3599V143.887H92.499V149.026H97.6382V154.165V159.304H92.499H87.3599V154.165Z" fill="black"/>
<path d="M66.8052 174.721H61.666V179.861H66.8052V174.721Z" fill="black"/>
<path d="M61.6665 179.859H56.5273V184.998H61.6665V179.859Z" fill="black"/>
<path d="M71.9438 179.859H66.8047V184.998H71.9438H77.083H82.2202V179.859H77.083H71.9438Z" fill="black"/>
<path d="M92.4995 179.859H87.3604V184.998H92.4995V179.859Z" fill="black"/>
<path d="M174.722 118.193H169.583V123.332V128.471H174.722V123.332V118.193Z" fill="black"/>
<path d="M174.722 102.777H169.583V107.915H174.722H179.861V113.054H184.999V107.915V102.777V97.6381H179.861V102.777H174.722Z" fill="black"/>
<path d="M179.861 97.6382V92.499H174.722V87.3599H169.583V92.499V97.6382H174.722H179.861Z" fill="black"/>
<path d="M174.721 66.8051H169.582H164.442V71.9424H169.582V77.0815V82.2207H174.721V77.0815H179.86V71.9424H184.997V66.8051H179.86H174.721Z" fill="black"/>
<path d="M179.86 128.471H174.721V133.61H179.86V138.749V143.887H184.997V138.749V133.61V128.471V123.332H179.86V128.471Z" fill="black"/>
<path d="M128.471 164.443H123.332V169.582H128.471V164.443Z" fill="black"/>
<path d="M143.888 169.582H138.749V174.722H143.888V169.582Z" fill="black"/>
<path d="M133.61 174.722V169.582H128.471V174.722H123.332V169.582H118.192V174.722H113.055V179.859H107.916V184.998H113.055H118.192V179.859H123.332V184.998H128.471V179.859H133.61H138.749V174.722H133.61Z" fill="black"/>
<path d="M174.722 159.304H169.583V164.443H174.722V159.304Z" fill="black"/>
<path d="M179.86 164.443H174.721V169.582H179.86V174.722V179.859H184.997V174.722V169.582V164.443V159.304H179.86V164.443Z" fill="black"/>
<path d="M41.1094 0H0V41.1113H41.1113L41.1094 0ZM35.9721 35.9702H5.13915V5.13723H35.9721V35.9702Z" fill="black"/>
<path d="M30.8349 10.2764H10.2783V30.8311H30.8349V10.2764Z" fill="black"/>
<path d="M0 186.082H41.1113V144.971H0V186.082ZM5.13915 150.11H35.9721V180.943H5.13915V150.11Z" fill="black"/>
<path d="M30.8349 155.249H10.2783V175.804H30.8349V155.249Z" fill="black"/>
<path d="M143.889 0V41.1113H185V0H143.889ZM179.861 35.9702H149.028V5.13723H179.861V35.9702Z" fill="black"/>
<path d="M174.722 10.2764H154.167V30.8311H174.722V10.2764Z" fill="black"/>
</svg>
