<svg width="16" height="16" viewBox="0 0 16 16" fill="none" xmlns="http://www.w3.org/2000/svg">
<path d="M10 14.3175C10 14.3175 9.5 14.5 8 14.5C6.5 14.5 5.6875 14 5 13.5H3C2.46957 13.5 1.96086 13.2893 1.58579 12.9142C1.21071 12.5391 1 12.0304 1 11.5V10C1 9.46957 1.21071 8.96086 1.58579 8.58579C1.96086 8.21071 2.46957 8 3 8H3.9375C4.10921 7.99905 4.27784 7.95437 4.42749 7.87017C4.57714 7.78596 4.70287 7.66502 4.79281 7.51875C4.79281 7.51875 5.0625 6.93156 5.875 5.52437C6.6875 4.11719 8.25 2 8.5 1.5C9.40625 1.5 9.84375 2.1875 9.5625 2.99094C9.24125 3.90937 8.82156 4.69031 8.70438 5.7125C8.6875 5.86188 8.8025 6.0875 8.95281 6.0875L13 6.40625" stroke="white" stroke-linecap="round" stroke-linejoin="round"/>
<path d="M13 8.46875L10.5 8.40625C9.875 8.34875 9.5 8.01875 9.5 7.46875C9.5 6.91875 9.9375 6.5675 10.5 6.53125L13 6.40625C13.55 6.40625 14 6.91875 14 7.46875V7.47406C13.9986 7.73836 13.8926 7.99135 13.7052 8.17774C13.5179 8.36413 13.2643 8.46875 13 8.46875ZM14 10.5L10.5 10.4375C9.9375 10.4113 9.5 10.0497 9.5 9.5C9.5 8.94969 9.9375 8.59812 10.5 8.5625L14 8.5C14.265 8.50082 14.5188 8.60645 14.7062 8.7938C14.8936 8.98116 14.9992 9.23504 15 9.5C14.9992 9.76496 14.8936 10.0188 14.7062 10.2062C14.5188 10.3936 14.265 10.4992 14 10.5ZM12.5 14.5L10.5 14.4062C9.84375 14.3487 9.5 14.05 9.5 13.5C9.5 12.95 9.95 12.5625 10.5 12.5625L12.5 12.5C12.765 12.5007 13.0189 12.6063 13.2063 12.7937C13.3937 12.9811 13.4993 13.235 13.5 13.5C13.4993 13.765 13.3937 14.0189 13.2063 14.2063C13.0189 14.3937 12.765 14.4993 12.5 14.5ZM13.5 12.5L10.5 12.4375C9.90625 12.4113 9.5 12.05 9.5 11.5C9.5 10.95 9.90625 10.5987 10.5 10.5625L13.5 10.5C13.765 10.5007 14.0189 10.6063 14.2063 10.7937C14.3937 10.9811 14.4993 11.235 14.5 11.5C14.4993 11.765 14.3937 12.0189 14.2063 12.2063C14.0189 12.3937 13.765 12.4993 13.5 12.5Z" stroke="white" stroke-miterlimit="10"/>
</svg>
