<svg width="40" height="16" viewBox="0 0 40 16" fill="none" xmlns="http://www.w3.org/2000/svg">
<path d="M25.1269 0.620605L19.0423 14.6926H17.6095L11.5249 0.620605H13.0951L18.3554 12.8432L23.6549 0.620605H25.1269Z" fill="#9BC565"/>
<path d="M32.7968 14.8133C31.4357 14.8133 30.1992 14.5051 29.0873 13.8886C27.9877 13.2587 27.1244 12.401 26.4962 11.3154C25.8813 10.2298 25.5737 9.01029 25.5737 7.65666C25.5737 6.30303 25.8813 5.08349 26.4962 3.99792C27.1244 2.91235 27.9877 2.06134 29.0873 1.44481C30.1992 0.814959 31.4357 0.5 32.7968 0.5C34.1579 0.5 35.3809 0.808231 36.4669 1.42476C37.5666 2.04122 38.4298 2.89896 39.0581 3.99792C39.6864 5.08349 40.0002 6.30303 40.0002 7.65666C40.0002 9.01029 39.6864 10.2365 39.0581 11.3355C38.4298 12.4211 37.5666 13.2721 36.4669 13.8886C35.3809 14.5051 34.1579 14.8133 32.7968 14.8133ZM32.7968 13.4865C33.8829 13.4865 34.8643 13.2386 35.7412 12.7427C36.6174 12.2334 37.3044 11.5366 37.8016 10.652C38.2994 9.75405 38.548 8.75562 38.548 7.65666C38.548 6.5577 38.2994 5.56592 37.8016 4.6814C37.3044 3.78349 36.6174 3.08655 35.7412 2.59073C34.8643 2.08146 33.8829 1.82679 32.7968 1.82679C31.7107 1.82679 30.7228 2.08146 29.8331 2.59073C28.9562 3.08655 28.2627 3.78349 27.7526 4.6814C27.2554 5.56592 27.0069 6.5577 27.0069 7.65666C27.0069 8.75562 27.2554 9.75405 27.7526 10.652C28.2627 11.5366 28.9562 12.2334 29.8331 12.7427C30.7228 13.2386 31.7107 13.4865 32.7968 13.4865Z" fill="#9BC565"/>
<path d="M34.8343 7.49166C34.8343 8.62096 33.9522 9.53642 32.8649 9.53642C31.7775 9.53642 30.8955 8.62096 30.8955 7.49166C30.8955 6.36236 31.7775 5.4469 32.8649 5.4469C33.9522 5.4469 34.8343 6.36236 34.8343 7.49166Z" fill="url(#paint0_radial_3_34)"/>
<path d="M10.7948 11.3239H3.1307L1.47998 15.0771H-0.0332031L6.25529 1.02759H7.68989L13.9784 15.0771H12.4456L10.7948 11.3239ZM10.2642 10.1196L6.96278 2.57303L3.66127 10.1196H10.2642Z" fill="#9BC565"/>
<defs>
<radialGradient id="paint0_radial_3_34" cx="0" cy="0" r="1" gradientUnits="userSpaceOnUse" gradientTransform="translate(32.6492 7.17274) rotate(23.8594) scale(1.48143 1.97957)">
<stop stop-color="#9E5F50"/>
<stop offset="0.6627" stop-color="#7D4F43"/>
<stop offset="0.8327" stop-color="#593B32"/>
<stop offset="1" stop-color="#37241C"/>
</radialGradient>
</defs>
</svg>
