<?xml version="1.0" encoding="utf-8"?><svg viewBox="0 0 1722 1699" xmlns="http://www.w3.org/2000/svg" xmlns:xlink="http://www.w3.org/1999/xlink"><style>:root>svg{display:none}:root>svg:target{display:block}</style><svg viewBox="0 0 20 20" id="alert" xmlns="http://www.w3.org/2000/svg"><path d="M10 .25C4.624.25.25 4.624.25 10s4.374 9.75 9.75 9.75 9.75-4.374 9.75-9.75S15.376.25 10 .25zm0 14.996a.938.938 0 110-1.875.938.938 0 010 1.875zm1.018-9.43l-.269 5.72a.75.75 0 01-1.5 0L8.98 5.82v-.003a1.019 1.019 0 112.036 0h.002z"/></svg><svg viewBox="0 0 22 12" id="arrow" xmlns="http://www.w3.org/2000/svg"><path fill-rule="evenodd" clip-rule="evenodd" d="M11.663 11.35a.937.937 0 01-1.325 0L.963 1.975A.938.938 0 012.288.65L11 9.362 19.713.65a.937.937 0 111.325 1.325l-9.375 9.375z"/></svg><svg viewBox="0 0 1722 1699" id="avo" xmlns="http://www.w3.org/2000/svg"><g filter="url(#ca)" fill-rule="evenodd" clip-rule="evenodd"><path d="M284.98 262.151c-1.128 1.228-1.765 3.121-1.765 5.773 0 2.64.631 4.514 1.754 5.726 1.116 1.206 2.794 1.838 5.066 1.838h2.208c2.272 0 3.95-.632 5.066-1.838 1.123-1.212 1.754-3.086 1.754-5.726 0-2.652-.637-4.545-1.764-5.773-1.121-1.221-2.799-1.863-5.056-1.863h-2.208c-2.257 0-3.935.642-5.055 1.863zm-.737-.676c1.363-1.485 3.345-2.187 5.792-2.187h2.208c2.447 0 4.429.702 5.793 2.187 1.356 1.478 2.027 3.653 2.027 6.449 0 2.784-.665 4.942-2.02 6.406-1.362 1.47-3.344 2.158-5.8 2.158h-2.208c-2.456 0-4.438-.688-5.8-2.158-1.355-1.464-2.02-3.622-2.02-6.406 0-2.796.671-4.971 2.028-6.449zm1.997 2.078c.863-1.015 2.155-1.433 3.795-1.433h2.208c1.64 0 2.927.418 3.784 1.431.84.993 1.18 2.459 1.18 4.349 0 1.901-.339 3.363-1.182 4.348-.859 1.004-2.146 1.408-3.782 1.408h-2.208c-1.646 0-2.939-.403-3.802-1.404-.846-.982-1.186-2.439-1.186-4.328 0-1.903.347-3.375 1.193-4.371zm.762.648c-.617.726-.955 1.906-.955 3.723 0 1.807.333 2.966.944 3.676.596.691 1.547 1.056 3.044 1.056h2.208c1.485 0 2.429-.364 3.022-1.058.61-.713.942-1.879.942-3.698 0-1.806-.332-2.98-.943-3.703-.595-.703-1.541-1.077-3.021-1.077h-2.208c-1.48 0-2.432.374-3.033 1.081zm-25.004-4.913h4.188l5.043 13.356c.044.12.091.164.119.183.029.02.086.045.204.045.117 0 .166-.024.191-.042.03-.021.081-.07.14-.203l5.282-13.339h4.22l-5.984 15.084c-.333.839-.823 1.457-1.496 1.857-.665.395-1.46.547-2.353.547-.839 0-1.636-.133-2.317-.514-.693-.388-1.221-1.008-1.558-1.897l-5.679-15.077zm1.445 1l5.169 13.723c.263.695.647 1.119 1.112 1.379.477.267 1.084.386 1.828.386.788 0 1.385-.136 1.842-.407.449-.266.81-.692 1.078-1.365l5.44-13.716h-2.068l-5.038 12.724-.004.008a1.44 1.44 0 01-.487.63 1.302 1.302 0 01-.763.222c-.265 0-.532-.059-.767-.219a1.346 1.346 0 01-.493-.657l-4.797-12.708h-2.052zm-10.555 1.484l-5.418 13.716h2.045l5.014-12.724.004-.008a1.43 1.43 0 01.508-.636c.235-.157.499-.216.766-.216.265 0 .533.059.768.219.235.161.393.392.492.657l4.798 12.708h2.073l-5.214-13.722c-.256-.671-.611-1.095-1.055-1.36-.454-.27-1.05-.406-1.838-.406-.8 0-1.404.136-1.864.408-.451.266-.812.691-1.079 1.364zm.571-2.226c.668-.394 1.468-.546 2.372-.546.893 0 1.688.152 2.35.548.672.401 1.157 1.021 1.477 1.862l5.73 15.078h-4.215l-5.042-13.356c-.045-.12-.091-.164-.12-.183-.029-.02-.085-.045-.204-.045-.117 0-.177.025-.212.048a.435.435 0 00-.142.197l-5.258 13.339H246l5.958-15.084c.333-.838.824-1.458 1.501-1.858z"/></g><defs><filter id="ca" x="-1175.28" y="-1162.28" width="2896.62" height="2860.34" filterUnits="userSpaceOnUse" color-interpolation-filters="sRGB"><feFlood flood-opacity="0" result="BackgroundImageFix"/><feColorMatrix in="SourceAlpha" values="0 0 0 0 0 0 0 0 0 0 0 0 0 0 0 0 0 0 127 0" result="hardAlpha"/><feOffset/><feGaussianBlur stdDeviation="16.92"/><feColorMatrix values="0 0 0 0 1 0 0 0 0 1 0 0 0 0 1 0 0 0 1 0"/><feBlend in2="BackgroundImageFix" result="effect1_dropShadow_2507_82"/><feColorMatrix in="SourceAlpha" values="0 0 0 0 0 0 0 0 0 0 0 0 0 0 0 0 0 0 127 0" result="hardAlpha"/><feOffset/><feGaussianBlur stdDeviation="33.84"/><feColorMatrix values="0 0 0 0 1 0 0 0 0 1 0 0 0 0 1 0 0 0 1 0"/><feBlend in2="effect1_dropShadow_2507_82" result="effect2_dropShadow_2507_82"/><feColorMatrix in="SourceAlpha" values="0 0 0 0 0 0 0 0 0 0 0 0 0 0 0 0 0 0 127 0" result="hardAlpha"/><feOffset/><feGaussianBlur stdDeviation="118.44"/><feColorMatrix values="0 0 0 0 1 0 0 0 0 1 0 0 0 0 1 0 0 0 1 0"/><feBlend in2="effect2_dropShadow_2507_82" result="effect3_dropShadow_2507_82"/><feColorMatrix in="SourceAlpha" values="0 0 0 0 0 0 0 0 0 0 0 0 0 0 0 0 0 0 127 0" result="hardAlpha"/><feOffset/><feGaussianBlur stdDeviation="236.88"/><feColorMatrix values="0 0 0 0 1 0 0 0 0 1 0 0 0 0 1 0 0 0 1 0"/><feBlend in2="effect3_dropShadow_2507_82" result="effect4_dropShadow_2507_82"/><feColorMatrix in="SourceAlpha" values="0 0 0 0 0 0 0 0 0 0 0 0 0 0 0 0 0 0 127 0" result="hardAlpha"/><feOffset/><feGaussianBlur stdDeviation="406.08"/><feColorMatrix values="0 0 0 0 1 0 0 0 0 1 0 0 0 0 1 0 0 0 1 0"/><feBlend in2="effect4_dropShadow_2507_82" result="effect5_dropShadow_2507_82"/><feColorMatrix in="SourceAlpha" values="0 0 0 0 0 0 0 0 0 0 0 0 0 0 0 0 0 0 127 0" result="hardAlpha"/><feOffset/><feGaussianBlur stdDeviation="710.64"/><feColorMatrix values="0 0 0 0 1 0 0 0 0 1 0 0 0 0 1 0 0 0 1 0"/><feBlend in2="effect5_dropShadow_2507_82" result="effect6_dropShadow_2507_82"/><feBlend in="SourceGraphic" in2="effect6_dropShadow_2507_82" result="shape"/></filter></defs></svg><svg viewBox="0 0 1180 649" id="board" xmlns="http://www.w3.org/2000/svg"><path d="M1180 8a8 8 0 00-8-8H702.809c-24.665 0-48.46 9.116-66.813 25.595L591 66h589V8z" fill-opacity=".6"/><g filter="url(#da)"><path d="M0 8a8 8 0 018-8h469.191c24.665 0 48.461 9.116 66.813 25.595l16.492 14.81A100.003 100.003 0 00627.309 66H1180v574.5a8 8 0 01-8 8H8a8 8 0 01-8-8V8z" fill-opacity=".5"/><path d="M0 8a8 8 0 018-8h469.191c24.665 0 48.461 9.116 66.813 25.595l16.492 14.81A100.003 100.003 0 00627.309 66H1180v574.5a8 8 0 01-8 8H8a8 8 0 01-8-8V8z" fill-opacity=".2"/></g><defs><linearGradient id="db" x1="0" y1="0" x2="226.474" y2="860.08" gradientUnits="userSpaceOnUse"><stop stop-opacity=".6"/><stop offset="1" stop-opacity=".1"/></linearGradient><filter id="da" x="-24" y="-24" width="1228" height="696.5" filterUnits="userSpaceOnUse" color-interpolation-filters="sRGB"><feFlood flood-opacity="0" result="BackgroundImageFix"/><feGaussianBlur in="BackgroundImageFix" stdDeviation="12"/><feComposite in2="SourceAlpha" operator="in" result="effect1_backgroundBlur_2503_69"/><feBlend in="SourceGraphic" in2="effect1_backgroundBlur_2503_69" result="shape"/></filter></defs></svg><svg viewBox="0 0 349 919" id="board-2" xmlns="http://www.w3.org/2000/svg"><path d="M349 8a8 8 0 00-8-8H218.426a31.506 31.506 0 00-29.442 20.29L175 57h174V8z" fill-opacity=".6"/><g filter="url(#ea)"><path d="M0 8a8 8 0 018-8h122.727a31.566 31.566 0 0129.491 20.31l3.117 8.165a44.257 44.257 0 0041.348 28.474H349V911a8 8 0 01-8 8H8a8 8 0 01-8-8V8z" fill-opacity=".5"/><path d="M0 8a8 8 0 018-8h122.727a31.566 31.566 0 0129.491 20.31l3.117 8.165a44.257 44.257 0 0041.348 28.474H349V911a8 8 0 01-8 8H8a8 8 0 01-8-8V8z" fill-opacity=".2"/></g><defs><linearGradient id="eb" x1="0" y1="-9" x2="456.377" y2="504.007" gradientUnits="userSpaceOnUse"><stop stop-opacity=".6"/><stop offset="1" stop-opacity=".1"/></linearGradient><filter id="ea" x="-24" y="-24" width="397" height="967" filterUnits="userSpaceOnUse" color-interpolation-filters="sRGB"><feFlood flood-opacity="0" result="BackgroundImageFix"/><feGaussianBlur in="BackgroundImageFix" stdDeviation="12"/><feComposite in2="SourceAlpha" operator="in" result="effect1_backgroundBlur_2502_68"/><feBlend in="SourceGraphic" in2="effect1_backgroundBlur_2502_68" result="shape"/></filter></defs></svg><svg viewBox="0 0 16 16" id="calendar" xmlns="http://www.w3.org/2000/svg"><path d="M13 2.5H3A1.5 1.5 0 001.5 4v9A1.5 1.5 0 003 14.5h10a1.5 1.5 0 001.5-1.5V4A1.5 1.5 0 0013 2.5z"/><path d="M9.25 8a.75.75 0 100-1.5.75.75 0 000 1.5zm2.5 0a.75.75 0 100-1.5.75.75 0 000 1.5zm-2.5 2.5a.75.75 0 100-1.5.75.75 0 000 1.5zm2.5 0a.75.75 0 100-1.5.75.75 0 000 1.5zm-7.5 0a.75.75 0 100-1.5.75.75 0 000 1.5zm2.5 0a.75.75 0 100-1.5.75.75 0 000 1.5zM4.25 13a.75.75 0 100-1.5.75.75 0 000 1.5zm2.5 0a.75.75 0 100-1.5.75.75 0 000 1.5zm2.5 0a.75.75 0 100-1.5.75.75 0 000 1.5zM4 1.5v1m8-1v1M14.5 5h-13"/></svg><svg viewBox="0 0 474 477" id="card" xmlns="http://www.w3.org/2000/svg"><path fill-rule="evenodd" clip-rule="evenodd" d="M469.5 471.769H4.5v-466h465v466zm-1-1v-464H5.5v464h463z"/><path fill-rule="evenodd" clip-rule="evenodd" d="M473.07 476.269h-58.018v-10h48.018v-51.431h10v61.431zm0-414.839h-10V10h-48.018V0h58.018v61.43zM59.88 476.269H.93v-61.431h10v51.431h48.95v10zM10.93 10v51.43h-10V0h58.95v10H10.93z"/><path fill-rule="evenodd" clip-rule="evenodd" d="M66.748 410.321l-59.53 61.296-.717-.697 59.53-61.296.717.697zm342.154-.694l58.6 61.296-.723.691-58.599-61.296.722-.691zM7.219 5.624l59.53 61.296-.718.697L6.501 6.321l.718-.697zm460.283.694l-58.6 61.296-.722-.69 58.599-61.297.723.691z"/></svg><svg viewBox="0 0 8 8" id="close" xmlns="http://www.w3.org/2000/svg"><path d="M7.5 7.5l-7-7m7 0l-7 7"/></svg><svg viewBox="0 0 20 20" id="copy" xmlns="http://www.w3.org/2000/svg"><path d="M15.898 5H7.227C5.997 5 5 5.997 5 7.227v8.671c0 1.23.997 2.227 2.227 2.227h8.671c1.23 0 2.227-.997 2.227-2.227V7.227c0-1.23-.997-2.227-2.227-2.227z"/><path d="M14.98 5l.02-.938a2.193 2.193 0 00-2.188-2.187H4.376a2.507 2.507 0 00-2.5 2.5v8.438A2.194 2.194 0 004.063 15H5"/></svg><svg viewBox="0 0 59 62" id="corner" xmlns="http://www.w3.org/2000/svg"><path d="M5.49 61.43V5h53.02"/></svg><svg viewBox="0 0 8 8" id="ellipse" xmlns="http://www.w3.org/2000/svg"><circle cx="4" cy="4" r="4"/><circle cx="4" cy="4" r="4" fill-opacity=".44"/><defs><radialGradient id="ka" cx="0" cy="0" r="1" gradientUnits="userSpaceOnUse" gradientTransform="rotate(104.606 2.081 3.094) scale(6.34505)"><stop stop-color="#A5FF5E"/><stop offset="1" stop-color="#49B317"/></radialGradient></defs></svg><svg viewBox="0 0 22 18" id="image" xmlns="http://www.w3.org/2000/svg"><path fill-rule="evenodd" clip-rule="evenodd" d="M.5 3A2.25 2.25 0 012.75.75h16.5A2.25 2.25 0 0121.5 3v12a2.25 2.25 0 01-2.25 2.25H2.75A2.25 2.25 0 01.5 15V3zM2 13.06V15c0 .414.336.75.75.75h16.5A.75.75 0 0020 15v-1.94l-2.69-2.689a1.5 1.5 0 00-2.12 0l-.88.879.97.97a.75.75 0 11-1.06 1.06L9.06 8.121a1.5 1.5 0 00-2.12 0L2 13.061v-.001zm10.125-7.81a1.125 1.125 0 112.25 0 1.125 1.125 0 01-2.25 0z"/></svg><svg viewBox="0 0 185 187" id="qr" xmlns="http://www.w3.org/2000/svg"><path d="M56.527 0h-5.14v5.14h5.14V0zm25.695 0h-5.139v5.14h5.14V0zm35.973 0h-5.139v5.14h5.139V0zM71.944 10.276V5.137h-5.139V0h-5.139v15.416h5.14v-5.14h5.138z"/><path d="M123.332 5.137h-5.14v5.14h5.14v-5.14zm10.278 10.278v5.14h5.139V5.137h-5.139v10.279zm-82.222 0v-5.139H46.25v10.279h5.14v-5.14zM133.61 0h-5.139v5.14h5.139V0zm-10.278 20.555h5.139V10.276h-5.139v10.279zm-61.666 0h-5.139v5.139h5.14v-5.14zm20.556 0h-5.139v5.139h5.14v-5.14z"/><path d="M56.527 25.694h-5.14v5.139h5.14v-5.14zm46.25 0h-5.14v5.139h5.14v-5.14zm-51.389 5.139H46.25v5.14h5.14v-5.14zm56.528 0h-5.139v5.14h5.139v-5.14zM66.805 35.97V25.693h-5.139V41.11h5.14v-5.14zm10.279 0V25.693h-5.14V41.11h5.14v-5.14zm25.693 0h-5.14v10.28h5.14V35.97zM41.112 46.248h-5.14v5.14h5.14v-5.14zm61.665 5.14v5.139h5.139V46.248h-5.139v5.14zm41.111-5.14h-5.139V41.11h-5.139v5.14h-5.139v5.139h5.139v5.139h10.278v-10.28zM5.14 51.388H0v5.139h5.14v-5.14zm20.554 0v-5.14h-5.14v10.279h5.14v-5.14z"/><path d="M128.471 51.388h-5.139v5.139h5.139v-5.14zm25.696 0h-5.139v5.139h5.139v-5.14zM20.555 61.666v-5.14h-5.139V46.249H5.14v5.14h5.137v10.278h10.279zm97.64-5.139h-5.139v5.139h5.139v-5.14zm51.388 5.139V46.248h-5.139v5.14h-5.139v15.418h5.139v-5.14h5.139z"/><path d="M10.279 61.666h-5.14v5.14h5.14v-5.14zm128.47-35.972h-5.139v5.139h5.139v-5.14zm-5.139 5.139h-5.139v5.14h5.139v-5.14zM25.694 61.666h-5.14v5.14h5.14v-5.14zm35.972 0v-5.14h-5.139v15.416h5.14v-5.137h5.139v-5.139h-5.14zm87.361 5.139V56.526h-5.139v5.14h-5.139v5.14h10.278z"/><path d="M15.416 66.805h-5.139v5.14h5.14v-5.14zm15.418 5.137v5.14h20.555V66.805h-5.14v5.137H35.973v-5.137h5.137V56.526H30.833v10.28h-5.139v5.136h5.14zm102.776 0h5.139v-5.137h-10.278v10.277h-5.139V87.36h5.139v-5.14h5.139V71.943zm20.555 0h-10.276v5.14h10.276v5.139h10.278V71.942h-10.278zM5.14 77.082v-5.14H0v10.279h5.14v-5.14zm56.526 0h-5.139v5.139h5.14v-5.14zm30.834 0v5.139h15.417V71.942h15.416V61.666h-5.139v5.14h-10.277v-5.14h-5.139v10.276h-5.139v5.14H92.5z"/><path d="M138.749 82.22h-5.139V92.5h5.139v-5.14h5.14V77.082h-5.14v5.14zm-82.222 5.14v-5.14H46.25v5.14h10.277zm10.279 0v5.139h5.139v15.417h5.139v5.14h15.418v-10.279h-5.14v5.139h-5.139v-5.139h-5.14V92.498h10.28v5.14H92.5v5.139h10.279v5.139h5.139v-5.139h5.139v-5.139h-5.139v-5.14h-5.139v5.14h-5.14v-5.14H92.5V87.36H82.223V71.942h5.14v5.14H92.5v-5.14h5.14V61.664H92.5v5.14h-5.139v-5.14h5.14v-5.14h5.139v-5.138H92.5v-5.14h-5.139v5.14h-5.139v-5.14h5.14v-5.139H92.5V20.55h15.418v5.14h5.139v5.14h5.139v5.138h-5.139v5.14h-5.139v5.139h5.139v5.139h5.139v-5.14h5.139V25.69h-5.143V10.276h-5.139V5.137H97.636v5.14h5.14v5.139H87.358V5.136H82.22v5.14H71.945v5.139h-5.14v5.139h10.279v-5.14h5.14v5.14h5.138v10.278h-5.139v10.279h-5.14v5.14h-5.138v-5.14h-5.14v5.14h-5.139v-5.14h-5.139v5.14H46.25v5.139h25.695v15.417h-5.14v15.418h-5.139v5.139h5.14v-.004zm10.278-25.694v-5.14h5.14v10.28h-5.14v-5.14zm-5.14 10.276h5.14v5.14h-5.14v-5.14zm5.14 10.279v5.139h-5.14v-5.14h5.14z"/><path d="M113.055 87.36h5.137v-5.14h-10.276v5.14h5.139zm-107.915 0H0v5.139h5.14v-5.14zm51.387 5.139h-5.14v5.14h5.14v5.138h10.279v-5.139h-5.14V87.36h-5.14v5.14zm-20.554 5.139h10.276V87.36h-5.14v-5.14H25.695v5.14h5.14v5.139h5.139v5.14zm82.222-5.139h-5.139v5.14h5.139v-5.14zm20.554 0v5.14h-5.139v5.138h10.279v5.139h5.139v20.557h-5.139v5.139h-5.14v-5.139h5.14v-5.139h-15.418v5.139h5.139v5.139h-5.139v5.139h-5.139v10.279h5.139v-5.139h5.139v5.139h-5.139v5.139h5.139v5.139h-5.139v5.139h5.139v5.139h5.139v-5.139h5.14v-5.139h5.139v5.139h-5.139v5.139h5.139v5.139h5.139v5.14h-5.139v-5.14h-5.139v5.14h-5.14v5.139h30.835v-5.139h5.14v-5.14h-10.279v5.14h-5.139v-5.14h5.139v-5.139h-10.278v-10.278h5.139V149.03h10.278v-5.139h5.14v-5.14h-10.279v5.14h-5.139v-5.14h5.139v-5.139h-10.278v-20.556h5.139v10.278h5.139v-10.278h5.139v-5.14h-15.417v-5.139h-5.139v-5.139h5.139v5.139h5.139v-5.139h5.139V92.5h-5.139v-5.14h-15.417v5.14h-5.14zm15.416 61.666h-15.417v-15.417h15.417v15.417zm-25.694-56.527h5.139V92.5h-10.278v10.277h5.139v-5.139z"/><path d="M169.582 97.638h-5.14v5.139h5.14v-5.139zm-133.611 5.139h-5.139v5.139h5.14v-5.139zm87.361 0h-5.14v5.139h5.14v-5.139zm-20.555 5.138h-5.14v5.139h5.14v-5.139zm25.694 5.139h5.139v-5.139h-10.278v10.278h5.139v-5.139z"/><path d="M138.749 113.054h-5.139v5.139h5.139v-5.139zm-61.665 5.139h-5.14v5.139h5.14v-5.139zm10.276 0h-5.14v5.139h5.14v-5.139zm10.28 0H92.5v5.139h5.14v-5.139zm-15.418 5.139h-5.139v5.139h5.14v-5.139zm10.278 0h-5.14v5.139h5.14v-5.139zm-66.806 5.139v-20.556H15.416V97.638h5.139v5.139h10.278V92.499H20.555V71.942h-5.14V92.5H5.14v5.14h5.137v5.138H5.14v-5.139H0v10.276h5.14v5.139H0v25.695h15.416v-5.139h-5.14v-5.139H5.14v-10.278h10.277v-5.139h5.139v15.417h-5.14v5.139h10.279v5.139h5.139v-5.139h5.14v-5.139h-10.28z"/><path d="M77.082 133.61v-5.139h-5.139v-5.139h-5.139v5.139h-5.139v-5.139h5.14v-15.417h-10.28v5.139h5.14v5.139H41.108v-5.139h10.279v-5.139h5.139v-5.138h-5.14v-5.139h-5.138v10.277H35.97v10.278h-5.139v5.139h5.14v5.139h5.136v-5.139h5.14v5.139h5.139v-5.139h5.139v10.278H46.248v-5.139h-5.14v10.278h10.279v5.138h-5.14v5.139h5.14v5.139h5.139v-15.416h5.139v-5.139h5.14v5.139h5.138v-5.139h5.14zm30.834 0h5.14v-5.139h10.276v-10.278h-5.139v5.139h-10.277v-5.139h-5.139v10.278h5.139v5.139zm20.555-5.139h-5.139v5.139h5.139v-5.139zm-25.694 5.139v-5.139h-5.14v10.278h5.14v-5.139zm20.555 0h-5.14v5.139h5.14v-5.139z"/><path d="M113.056 143.887h5.137v-5.138h-15.416v5.138h10.279zm-46.251 0h-5.139v5.139h10.278v-5.139h-5.139zm82.223 0h-5.139v5.139h5.139v-5.139zm-71.944 5.139h-5.14v5.139h5.14v-5.139zm92.498 5.139h-5.14v5.139h5.14v-5.139zm-118.194 5.139H46.25v5.139h5.14v-5.139zm20.556 0v-5.139h-5.14v15.417h5.14v-10.278zm51.388 0h-5.14v5.139h5.14v-5.139zm-61.666 5.139h-5.139v5.139h5.14v-5.139zm20.556 0h-5.139v5.139h5.14v-5.139z"/><path d="M56.527 169.582H46.25v10.277h5.14v-5.137h5.138v-5.14zm20.557 0h-5.14v5.14h5.14v-5.14zm30.832 0h5.14v-5.139h-10.279v10.278h-5.139v-5.139H92.5v-5.139h10.277v-5.139h15.418v-5.139h-15.418v-10.278h-5.139v-5.14H87.36v-5.139H77.082v5.139h-5.137v5.14h10.279v20.556h5.139v5.139h-5.14v10.279h5.14v-5.14H92.5v5.14h15.418v-5.14l-.002-5.139zM87.36 154.165h5.139v-5.139h-5.14v-5.139h5.14v5.139h5.14v10.278h-10.28v-5.139zm-20.555 20.556h-5.139v5.14h5.14v-5.14z"/><path d="M61.666 179.859h-5.139v5.139h5.14v-5.139zm10.278 0h-5.14v5.139H82.22v-5.139H71.943zm20.556 0h-5.14v5.139h5.14v-5.139zm82.222-61.666h-5.139v10.278h5.139v-10.278zm0-15.416h-5.139v5.138h10.278v5.139h5.138V97.638h-5.138v5.139h-5.139z"/><path d="M179.861 97.638V92.5h-5.139v-5.14h-5.139v10.28h10.278zm-5.14-30.833h-10.279v5.137h5.14v10.279h5.139v-5.14h5.139v-5.139h5.137v-5.137h-10.276zm5.139 61.666h-5.139v5.139h5.139v10.277h5.137v-20.555h-5.137v5.139zm-51.389 35.972h-5.139v5.139h5.139v-5.139zm15.417 5.139h-5.139v5.14h5.139v-5.14zm-10.278 5.14v-5.14h-5.139v5.14h-5.139v-5.14h-5.14v5.14h-5.137v5.137h-5.139v5.139h10.276v-5.139h5.14v5.139h5.139v-5.139h10.278v-5.137h-5.139zm41.112-15.418h-5.139v5.139h5.139v-5.139z"/><path d="M179.86 164.443h-5.139v5.139h5.139v10.277h5.137v-20.555h-5.137v5.139zM41.11 0H0v41.111h41.111L41.11 0zm-5.138 35.97H5.14V5.137h30.833V35.97z"/><path d="M30.835 10.276H10.278v20.555h20.557V10.276zM0 186.082h41.111v-41.111H0v41.111zm5.14-35.972h30.832v30.833H5.14V150.11z"/><path d="M30.835 155.249H10.278v20.555h20.557v-20.555zM143.889 0v41.111H185V0h-41.111zm35.972 35.97h-30.833V5.137h30.833V35.97z"/><path d="M174.722 10.276h-20.555v20.555h20.555V10.276z"/></svg><svg viewBox="0 0 16 16" id="thumbs" xmlns="http://www.w3.org/2000/svg"><path d="M10 14.318s-.5.182-2 .182-2.313-.5-3-1H3a2 2 0 01-2-2V10a2 2 0 012-2h.938a1.01 1.01 0 00.855-.481s.27-.587 1.082-1.995C6.688 4.117 8.25 2 8.5 1.5c.906 0 1.344.688 1.063 1.49-.322.92-.741 1.7-.859 2.723-.017.149.098.375.249.375L13 6.405"/><path d="M13 8.469l-2.5-.063c-.625-.057-1-.387-1-.937s.438-.902 1-.938l2.5-.125c.55 0 1 .513 1 1.063v.005a1 1 0 01-1 .995zm1 2.031l-3.5-.063c-.563-.026-1-.387-1-.937s.438-.902 1-.938L14 8.5a1.003 1.003 0 011 1 1.003 1.003 0 01-1 1zm-1.5 4l-2-.094c-.656-.057-1-.356-1-.906s.45-.938 1-.938l2-.062a1.003 1.003 0 011 1 1.003 1.003 0 01-1 1zm1-2l-3-.063c-.594-.026-1-.387-1-.937s.406-.901 1-.938l3-.062a1.003 1.003 0 011 1 1.003 1.003 0 01-1 1z"/></svg></svg>